<?xml version="1.0" standalone="no"?>
<!DOCTYPE svg PUBLIC "-//W3C//DTD SVG 20010904//EN"
 "http://www.w3.org/TR/2001/REC-SVG-20010904/DTD/svg10.dtd">
<svg version="1.0" xmlns="http://www.w3.org/2000/svg"
 width="260.000000pt" height="260.000000pt" viewBox="0 0 260.000000 260.000000"
 preserveAspectRatio="xMidYMid meet">
<metadata>
Created by potrace 1.11, written by Peter Selinger 2001-2013
</metadata>
<g transform="translate(0.000000,260.000000) scale(0.100000,-0.100000)"
fill="#000000" stroke="none">
<path d="M237 1962 c-41 -4 -43 -12 -10 -74 7 -16 11 -28 7 -28 -4 0 -2 -6 4
-12 5 -7 51 -110 102 -228 50 -118 100 -234 111 -257 10 -24 19 -45 19 -47 0
-2 10 -25 22 -52 12 -27 23 -51 23 -54 0 -3 9 -20 18 -37 10 -18 15 -33 11
-33 -3 0 0 -10 8 -22 8 -13 38 -79 67 -148 29 -69 62 -144 72 -168 11 -24 27
-62 36 -85 9 -23 20 -47 25 -54 6 -7 8 -16 5 -20 -3 -4 38 -8 91 -7 55 0 103
-4 111 -10 11 -8 13 -8 8 0 -4 8 21 11 83 11 62 0 87 -3 83 -11 -4 -6 1 -5 10
3 9 7 22 11 29 8 14 -5 31 10 36 33 2 8 7 17 10 20 4 3 7 11 8 18 2 29 5 33
16 26 6 -4 8 -3 5 3 -7 11 42 135 55 141 4 2 4 10 1 18 -3 9 1 14 13 14 16 0
17 2 4 10 -10 6 -11 10 -3 10 7 0 12 3 12 8 -3 20 2 32 13 26 7 -5 8 -3 4 5
-10 16 13 73 27 64 6 -4 8 0 4 10 -7 20 12 69 24 61 4 -2 6 5 4 17 -3 16 0 19
12 15 12 -5 13 -3 5 6 -8 10 -3 28 16 68 14 30 27 60 28 65 2 6 6 19 9 31 5
17 -6 30 -65 74 -39 29 -67 56 -62 59 6 3 42 5 81 3 50 -3 69 -7 65 -15 -4 -7
7 2 24 19 16 16 33 40 36 52 4 13 12 19 18 16 7 -4 8 -2 4 4 -4 7 1 29 12 50
11 20 26 53 34 72 37 89 44 100 58 100 13 0 13 1 0 10 -12 8 -13 12 -2 19 8 4
13 11 13 15 -1 3 0 8 0 11 1 3 2 9 3 15 0 5 9 18 18 29 9 11 14 22 11 25 -7 6
19 66 27 61 3 -2 6 5 6 16 0 10 -4 19 -8 20 -4 0 -82 0 -173 0 -275 0 -243 6
-267 -48 -11 -27 -28 -66 -38 -88 -14 -32 -219 -507 -277 -644 l-14 -33 -20
36 c-11 20 -17 41 -14 46 3 4 0 10 -6 12 -6 2 -12 15 -12 30 -1 14 -5 24 -8
22 -7 -4 -26 37 -31 66 -2 8 -6 17 -9 20 -14 13 -49 102 -43 112 4 7 3 8 -4 4
-7 -4 -12 -1 -12 7 0 7 -14 42 -30 76 -17 34 -28 66 -25 72 4 5 3 9 -2 9 -10
0 -33 48 -33 68 0 7 -7 20 -15 29 -10 9 -13 23 -9 35 4 13 2 18 -4 14 -8 -5
-43 64 -48 94 -4 30 -31 60 -53 61 -170 3 -333 3 -364 1z"/>
<path d="M1808 1923 c-9 -21 -33 -76 -54 -123 -20 -47 -41 -91 -46 -97 -6 -7
-8 -13 -5 -13 3 0 -12 -39 -34 -87 -41 -93 -46 -122 -27 -152 9 -14 17 -17 33
-11 12 5 27 5 34 1 7 -5 30 -5 51 -1 25 5 37 4 33 -2 -3 -6 4 -7 18 -3 32 10
21 -1 -63 -63 l-66 -49 15 -34 c28 -64 32 -74 35 -89 2 -8 7 -18 11 -21 5 -3
9 -12 11 -20 1 -8 10 -29 20 -47 9 -19 15 -40 12 -48 -3 -8 -2 -12 3 -9 5 3
13 -5 17 -17 4 -13 17 -45 29 -73 13 -27 35 -79 50 -115 14 -36 32 -78 40 -95
7 -16 21 -49 30 -72 10 -24 22 -43 29 -44 6 -1 45 -2 86 -3 41 0 81 -5 89 -10
9 -6 12 -5 8 1 -4 6 26 10 83 10 62 0 87 -3 83 -11 -4 -6 1 -5 10 3 9 7 23 11
32 8 25 -10 26 9 5 64 -12 28 -18 54 -16 57 3 3 0 10 -8 16 -7 6 -23 36 -36
66 -12 30 -33 80 -47 110 -14 30 -26 60 -27 65 -2 6 -11 28 -21 50 -10 22 -21
49 -25 60 -4 11 -15 36 -23 55 -9 19 -13 38 -10 44 3 5 1 6 -5 2 -11 -7 -16 7
-15 41 1 7 -3 10 -8 7 -5 -3 -9 1 -9 8 0 7 -7 26 -15 42 -9 16 -13 36 -10 43
2 8 1 12 -4 9 -9 -6 -54 88 -54 112 0 6 -4 12 -9 12 -6 0 -8 6 -6 12 3 7 -1
19 -9 26 -7 8 -11 18 -8 23 4 5 1 9 -4 9 -6 0 -10 3 -9 8 0 4 -6 23 -15 43 -9
20 -17 42 -19 50 -2 8 -6 16 -9 19 -14 10 -39 83 -32 93 3 5 2 7 -4 4 -12 -8
-47 88 -37 104 4 7 3 9 -4 5 -12 -7 -36 29 -28 43 5 7 -14 21 -28 21 -1 0 -9
-17 -18 -37z"/>
</g>
</svg>
